<svg xmlns="http://www.w3.org/2000/svg" width="21.904" height="21.904" viewBox="0 0 21.904 21.904">
  <g id="gol" transform="translate(-1945 -136)">
    <path id="Trazado_6" data-name="Trazado 6" d="M17.194,134.825c-.4-.057-.756.263-1.069.464a11.371,11.371,0,0,0-1.848,1.495,3.276,3.276,0,0,0-.964,1.315,1.7,1.7,0,0,0,.06.725,11.021,11.021,0,0,0,.328,1.164,13.214,13.214,0,0,0,.485,1.268c.091.208.191.414.289.621s.151.306.375.335a4.38,4.38,0,0,0,.751-.016,8.255,8.255,0,0,0,1.1-.111,8.418,8.418,0,0,0,1.421-.332,2.244,2.244,0,0,0,1.157-.78,7.754,7.754,0,0,0,1.023-2.762,4.6,4.6,0,0,0,.1-.853.943.943,0,0,0-.158-.706,5.987,5.987,0,0,0-1.114-.9A5.006,5.006,0,0,0,17.194,134.825Z" transform="translate(1943 12)"/>
    <path id="Trazado_7" data-name="Trazado 7" d="M5.532,130.772a2.868,2.868,0,0,0-.883,1.014,6.992,6.992,0,0,0-.954,2.281,3.34,3.34,0,0,0,.352,1.774,4.437,4.437,0,0,0,.926,1.4c.1.11.218.192.315.3a1.579,1.579,0,0,0,.394.317c.1.059.2-.02.3-.044a3.1,3.1,0,0,0,.734-.341c.225-.12.457-.221.684-.342a8.424,8.424,0,0,0,1.49-.835.37.37,0,0,0,.143-.179,2.6,2.6,0,0,0-.024-.61c-.01-.263-.014-.524-.015-.787,0-.6.021-1.189.021-1.784.005-.332.046-.662.031-.993-.027-.494-.56-.669-.961-.769a14.575,14.575,0,0,0-1.7-.4A1.715,1.715,0,0,0,5.532,130.772Z" transform="translate(1943 12)"/>
    <path id="Trazado_8" data-name="Trazado 8" d="M20.123,129.289a2.139,2.139,0,0,0-.376-1.155,6.115,6.115,0,0,0-1.509-1.838,3.585,3.585,0,0,0-1.875-.625A10.815,10.815,0,0,0,14,125.662a.988.988,0,0,0-.629.285,2.375,2.375,0,0,0-.371,1.2,6.442,6.442,0,0,0-.079,1.742.657.657,0,0,0,.569.671c1.024.452,2.979,1.571,3.3,1.722a1.366,1.366,0,0,0,1.33-.321,15.46,15.46,0,0,0,1.458-1.051C19.748,129.749,20.09,129.509,20.123,129.289Z" transform="translate(1943 12)"/>
    <path id="Trazado_9" data-name="Trazado 9" d="M5.408,142.074a.572.572,0,0,0,.144.16c.1.078.2.157.294.241a15.253,15.253,0,0,0,2.8,1.825c.294.162.574.327.873.476a5.652,5.652,0,0,0,1,.365,4.4,4.4,0,0,0,.718.153c.227.022.459.075.688.079a2.637,2.637,0,0,0,.378-.021c-.062-.1-.117-.227-.17-.333-.084-.167-.17-.336-.256-.5-.1-.19-.177-.39-.279-.579a.964.964,0,0,0-.325-.378,4.291,4.291,0,0,0-.581-.309A17.643,17.643,0,0,1,8.552,142.1c-.358-.208-.708-.43-1.045-.672-.18-.129-.356-.263-.547-.378a.334.334,0,0,0-.125-.064.6.6,0,0,0-.146,0c-.038.005-.082.012-.119.019-.247.051-.516.117-.772.173a5.417,5.417,0,0,0-.751.164c-.091.034-.081.086-.045.165a1.551,1.551,0,0,0,.22.34C5.28,141.918,5.35,141.987,5.408,142.074Z" transform="translate(1943 12)"/>
    <path id="Trazado_10" data-name="Trazado 10" d="M8.382,132.257a.308.308,0,0,1-.164-.047.309.309,0,0,1-.142-.3.307.307,0,0,1,.066-.158,9.492,9.492,0,0,1,5.615-3.083.3.3,0,0,1,.12.005.312.312,0,0,1,.109.051.3.3,0,0,1,.081.089.3.3,0,0,1,.041.112.307.307,0,0,1-.005.12.3.3,0,0,1-.051.109.308.308,0,0,1-.2.122,9.04,9.04,0,0,0-5.228,2.862A.31.31,0,0,1,8.382,132.257Z" transform="translate(1943 12)"/>
    <path id="Trazado_11" data-name="Trazado 11" d="M7.649,143.047a.3.3,0,0,1-.239-.113,9.489,9.489,0,0,1-1.827-6.14.307.307,0,1,1,.614.036,9,9,0,0,0,1.691,5.715.308.308,0,0,1-.045.433A.314.314,0,0,1,7.649,143.047Z" transform="translate(1943 12)"/>
    <path id="Trazado_12" data-name="Trazado 12" d="M9.973,144.257a.308.308,0,0,1-.024-.615,9.029,9.029,0,0,0,5.3-2.735.313.313,0,0,1,.215-.1.309.309,0,0,1,.237.519,9.51,9.51,0,0,1-5.7,2.929A.126.126,0,0,0,9.973,144.257Z" transform="translate(1943 12)"/>
    <path id="Trazado_13" data-name="Trazado 13" d="M5.692,131.887a.3.3,0,0,1-.3-.249,9.434,9.434,0,0,1,.431-4.536.308.308,0,0,1,.583.2A8.909,8.909,0,0,0,6,131.519a.309.309,0,0,1-.244.363A.3.3,0,0,1,5.692,131.887Z" transform="translate(1943 12)"/>
    <path id="Trazado_14" data-name="Trazado 14" d="M14.648,126.832a.3.3,0,0,1-.182-.061,9.033,9.033,0,0,0-3.986-1.434.308.308,0,0,1,.065-.612,9.459,9.459,0,0,1,4.285,1.549.309.309,0,0,1,.064.431A.3.3,0,0,1,14.648,126.832Z" transform="translate(1943 12)"/>
    <path id="Trazado_15" data-name="Trazado 15" d="M22.428,131.846a.31.31,0,0,1-.241-.115,8.974,8.974,0,0,0-3.358-2.578.309.309,0,0,1,.216-.578,9.455,9.455,0,0,1,3.62,2.768.307.307,0,0,1-.046.433A.289.289,0,0,1,22.428,131.846Z" transform="translate(1943 12)"/>
    <path id="Trazado_16" data-name="Trazado 16" d="M16.987,136.012a.263.263,0,0,1-.039,0,.306.306,0,0,1-.114-.038.322.322,0,0,1-.09-.08.3.3,0,0,1-.053-.108.306.306,0,0,1-.007-.12,18.254,18.254,0,0,0,0-5.144.308.308,0,0,1,.607-.11,18.667,18.667,0,0,1,0,5.337A.307.307,0,0,1,16.987,136.012Z" transform="translate(1943 12)"/>
    <path id="Trazado_17" data-name="Trazado 17" d="M14.314,138.529a.127.127,0,0,1-.027,0,12.2,12.2,0,0,1-6.456-2.59A.31.31,0,0,1,7.8,135.5a.308.308,0,0,1,.435-.031,11.777,11.777,0,0,0,6.107,2.442.309.309,0,0,1,.185.53A.315.315,0,0,1,14.314,138.529Z" transform="translate(1943 12)"/>
    <path id="Trazado_18" data-name="Trazado 18" d="M3.315,135a2.259,2.259,0,0,1-.808-.135.3.3,0,0,1-.172-.161.308.308,0,0,1,.39-.416,2.46,2.46,0,0,0,1.334-.007.308.308,0,0,1,.177.591A3.533,3.533,0,0,1,3.315,135Z" transform="translate(1943 12)"/>
    <path id="Trazado_19" data-name="Trazado 19" d="M20.114,137.626a.307.307,0,0,1-.278-.178.311.311,0,0,1,.149-.41,9,9,0,0,0,3.171-2.808.305.305,0,0,1,.428-.077.308.308,0,0,1,.077.428,9.474,9.474,0,0,1-3.417,3.016A.332.332,0,0,1,20.114,137.626Z" transform="translate(1943 12)"/>
    <path id="Trazado_20" data-name="Trazado 20" d="M20.114,142.829a.32.32,0,0,1-.2-.067,8.434,8.434,0,0,1-1.416-1.6.318.318,0,0,1,.086-.439.314.314,0,0,1,.436.088,7.908,7.908,0,0,0,1.284,1.461.318.318,0,0,1,.053.443A.325.325,0,0,1,20.114,142.829Z" transform="translate(1943 12)"/>
    <path id="Trazado_21" data-name="Trazado 21" d="M12.952,145.9A10.952,10.952,0,1,1,23.9,134.95,10.963,10.963,0,0,1,12.952,145.9Zm0-20.672a9.72,9.72,0,1,0,9.718,9.72A9.731,9.731,0,0,0,12.952,125.232Z" transform="translate(1943 12)"/>
  </g>
</svg>
